<svg data-v-423bf9ae="" xmlns="http://www.w3.org/2000/svg" viewBox="0 0 256.5237197979789 163" class="iconAbove"><!----><!----><!----><g data-v-423bf9ae="" id="397324ff-6ad7-41b8-9f68-f959ff101dd4" fill="#2F190E" transform="matrix(4.51467302315642,0,0,4.51467302315642,-5.417604748813204,85.57336391202813)"><path d="M1.20 14.35L4.94 14.35C6.52 14.35 7.63 13.15 7.63 11.56C7.63 10.21 6.86 9.52 5.74 9.25L5.74 9.21C6.66 8.92 7.28 8.26 7.28 7.11C7.28 5.57 6.26 4.58 4.54 4.58L1.20 4.58ZM2.55 13.24L2.55 9.86L4.54 9.86C5.60 9.86 6.22 10.32 6.22 11.27L6.22 11.82C6.22 12.80 5.60 13.24 4.54 13.24ZM2.55 8.81L2.55 5.68L4.33 5.68C5.31 5.68 5.88 6.10 5.88 6.99L5.88 7.50C5.88 8.40 5.31 8.81 4.33 8.81ZM13.05 5.66C13.75 5.66 14 5.32 14 4.90L14 4.63C14 4.20 13.75 3.86 13.05 3.86C12.35 3.86 12.10 4.20 12.10 4.63L12.10 4.90C12.10 5.32 12.35 5.66 13.05 5.66ZM9.86 14.35L16.07 14.35L16.07 13.27L13.69 13.27L13.69 7.13L9.86 7.13L9.86 8.20L12.39 8.20L12.39 13.27L9.86 13.27ZM21 14.52C23.07 14.52 24.35 13.05 24.35 10.74C24.35 8.43 23.07 6.96 21 6.96C18.93 6.96 17.65 8.43 17.65 10.74C17.65 13.05 18.93 14.52 21 14.52ZM21 13.44C19.81 13.44 19.04 12.73 19.04 11.27L19.04 10.21C19.04 8.75 19.81 8.04 21 8.04C22.19 8.04 22.96 8.75 22.96 10.21L22.96 11.27C22.96 12.73 22.19 13.44 21 13.44ZM29.46 14.52C31.36 14.52 32.56 13.66 32.56 12.22C32.56 10.70 31.21 10.36 30.11 10.21L28.98 10.04C28.35 9.94 27.78 9.76 27.78 9.06C27.78 8.37 28.36 7.99 29.43 7.99C30.65 7.99 31.29 8.47 31.64 8.89L32.44 8.11C31.77 7.39 30.80 6.96 29.48 6.96C27.72 6.96 26.49 7.71 26.49 9.17C26.49 10.70 27.86 11.03 28.94 11.19L30.07 11.35C30.72 11.45 31.28 11.63 31.28 12.32C31.28 13.12 30.53 13.48 29.48 13.48C28.36 13.48 27.58 13.08 26.92 12.38L26.10 13.12C26.81 13.97 27.93 14.52 29.46 14.52ZM34.96 14.35L36.26 14.35L36.26 11.76L37.41 10.71L40.08 14.35L41.68 14.35L38.37 9.95L41.33 7.13L39.77 7.13L37.53 9.23L36.33 10.40L36.26 10.40L36.26 3.99L34.96 3.99ZM46.20 14.52C48.27 14.52 49.55 13.05 49.55 10.74C49.55 8.43 48.27 6.96 46.20 6.96C44.13 6.96 42.85 8.43 42.85 10.74C42.85 13.05 44.13 14.52 46.20 14.52ZM46.20 13.44C45.01 13.44 44.24 12.73 44.24 11.27L44.24 10.21C44.24 8.75 45.01 8.04 46.20 8.04C47.39 8.04 48.16 8.75 48.16 10.21L48.16 11.27C48.16 12.73 47.39 13.44 46.20 13.44ZM51.63 17.15L52.93 17.15L52.93 13.15L53.00 13.15C53.44 14.03 54.17 14.52 55.22 14.52C56.94 14.52 58.02 13.15 58.02 10.74C58.02 8.33 56.94 6.96 55.22 6.96C54.17 6.96 53.44 7.45 53.00 8.33L52.93 8.33L52.93 7.13L51.63 7.13ZM54.68 13.41C53.75 13.41 52.93 12.92 52.93 12.00L52.93 9.48C52.93 8.55 53.75 8.06 54.68 8.06C55.92 8.06 56.63 8.89 56.63 10.14L56.63 11.34C56.63 12.59 55.92 13.41 54.68 13.41Z"></path></g><defs data-v-423bf9ae=""><linearGradient data-v-423bf9ae="" gradientTransform="rotate(25)" id="fc2cbc43-3247-4bd5-9ce0-8d9dd28b62bf" x1="0%" y1="0%" x2="100%" y2="0%"><stop data-v-423bf9ae="" offset="0%" style="stop-color: rgb(169, 37, 128); stop-opacity: 1;"></stop><stop data-v-423bf9ae="" offset="100%" style="stop-color: rgb(247, 188, 0); stop-opacity: 1;"></stop></linearGradient></defs><g data-v-423bf9ae="" id="e17b09e9-44bf-48c5-af10-d6361a0e0d42" transform="matrix(1.055458433352203,0,0,1.055458433352203,74.65903986173106,-7.4084513489455475)" stroke="none" fill="url(#fc2cbc43-3247-4bd5-9ce0-8d9dd28b62bf)"><path d="M76.509 92.632c-2.197-.407-4.389-.85-6.592-1.215-10.627-1.757-21.255-3.497-31.885-5.238-8.29-1.358-16.581-2.707-24.871-4.062-.198-.032-.389-.098-.672-.17l7.192-43.876c.246-.051.328-.094.401-.08 1.839.326 4.056.145 5.406 1.138 1.302.96 1.718 3.132 2.502 4.781a293.266 293.266 0 0 1 2.583 5.54c.331.736.732 1.158 1.632 1.25 1.763.179 3.508.549 5.521.882L32.231 40.03c1.569.231 2.924.566 4.286.603 2.197.059 3.35 1.119 4.133 3.136 1.065 2.747 2.469 5.362 3.702 8.044.301.657.67 1.021 1.462 1.114 1.801.209 3.587.565 5.635.904L45.95 42.278c1.515.224 2.827.531 4.152.59 2.172.097 3.475.988 4.269 3.133 1.02 2.76 2.467 5.36 3.694 8.044.326.713.743 1.051 1.572 1.143 1.765.195 3.511.555 5.533.891l-5.512-11.594c2.453.407 4.68.746 6.888 1.182.288.057.534.585.702.941a912.602 912.602 0 0 1 4.56 9.712c.306.664.675 1.017 1.46 1.108 1.806.211 3.594.56 5.624.891l-5.501-11.562 5.697.881.11-.206-4.864-2.972 3.626-1.652c2.346-1.071 4.708-2.109 7.029-3.231.764-.37 1.352-.361 2.05.117.783.537 1.646.954 2.475 1.424v.25c-1.686 2.761-3.379 5.518-5.049 8.29-.162.269-.198.625-.25.947-1.49 9.013-2.972 18.027-4.46 27.04-.825 4.997-1.662 9.995-2.495 14.991-.25-.004-.5-.004-.751-.004zm1.367-30.351l-56.265-9.218-.609 3.831 56.237 9.216.637-3.829zm-4.188 25.396c.196-1.061.334-1.962.536-2.849.168-.74-.091-1.043-.83-1.16-4.722-.748-9.44-1.526-14.159-2.299l-31.392-5.136c-3.228-.528-6.458-1.054-9.764-1.594l-.606 3.825c18.784 3.08 37.443 6.137 56.215 9.213zM27.738 16.463l5.476-9.098 11.34 6.809c-.672.319-1.163.559-1.661.787-3.022 1.384-6.054 2.75-9.063 4.159-.664.312-1.188.353-1.837-.073-1.351-.888-2.763-1.686-4.255-2.584z"></path><path d="M62.407 37.289c3.837-1.75 7.428-3.398 11.032-5.015.304-.138.786-.222 1.04-.078 1.905 1.09 3.775 2.246 5.843 3.493-3.31 1.516-6.477 2.851-9.528 4.411-1.598.817-2.854.822-4.288-.284-1.205-.927-2.595-1.614-4.099-2.527zM56.502 21.359c-3.923 1.788-7.573 3.465-11.242 5.1-.277.123-.748.056-1.026-.104-1.834-1.057-3.638-2.163-5.656-3.376 1.504-.692 2.833-1.305 4.163-1.916 2.265-1.039 4.525-2.09 6.805-3.095.331-.146.849-.233 1.127-.076 1.878 1.063 3.715 2.197 5.829 3.467zM68.414 28.524c-2.925 1.336-5.795 2.379-8.382 3.904-2.47 1.456-4.469 1.282-6.584-.48-.814-.678-1.82-1.124-2.914-1.781.603-.304 1.024-.533 1.459-.732 3.061-1.399 6.136-2.769 9.18-4.203.713-.335 1.244-.373 1.939.08 1.668 1.088 3.404 2.072 5.302 3.212z"></path></g><!----></svg>